<?xml version="1.0" encoding="iso-8859-1"?>
<!-- Generator: Adobe Illustrator 19.0.0, SVG Export Plug-In . SVG Version: 6.00 Build 0)  -->
<svg version="1.1" id="Layer_1" xmlns="http://www.w3.org/2000/svg" xmlns:xlink="http://www.w3.org/1999/xlink" x="0px" y="0px"
	 viewBox="0 0 512 512" style="enable-background:new 0 0 512 512;" xml:space="preserve">
<g>
	<g>
		<path fill="#ffffff" d="M256,0C114.843,0,0,114.843,0,256s114.843,256,256,256s256-114.843,256-256S397.157,0,256,0z M265.722,242.43
			c34.571,24.766,73.756,52.836,73.756,97.049c0,40.316-28.724,74.04-66.783,81.795v18.379c0,9.223-7.473,16.696-16.696,16.696
			c-9.223,0-16.696-7.473-16.696-16.696v-18.379c-38.058-7.756-66.783-41.48-66.783-81.795c0-9.223,7.473-16.696,16.696-16.696
			s16.696,7.473,16.696,16.696c0,27.619,22.468,50.087,50.087,50.087s50.087-22.468,50.087-50.087
			c0-27.06-29.055-47.87-59.809-69.908c-34.571-24.766-73.756-52.836-73.756-97.049c0-40.316,28.724-74.04,66.783-81.795V72.348
			c0-9.223,7.473-16.696,16.696-16.696c9.223,0,16.696,7.473,16.696,16.696v18.379c38.058,7.756,66.783,41.48,66.783,81.795
			c0,9.223-7.473,16.696-16.696,16.696c-9.223,0-16.696-7.473-16.696-16.696c0-27.619-22.468-50.087-50.087-50.087
			s-50.087,22.468-50.087,50.087C205.913,199.582,234.968,220.392,265.722,242.43z"/>
	</g>
</g>
<g>
</g>
<g>
</g>
<g>
</g>
<g>
</g>
<g>
</g>
<g>
</g>
<g>
</g>
<g>
</g>
<g>
</g>
<g>
</g>
<g>
</g>
<g>
</g>
<g>
</g>
<g>
</g>
<g>
</g>
</svg>
