<?xml version="1.0" encoding="iso-8859-1"?>
<!-- Generator: Adobe Illustrator 16.0.0, SVG Export Plug-In . SVG Version: 6.00 Build 0)  -->
<!DOCTYPE svg PUBLIC "-//W3C//DTD SVG 1.1//EN" "http://www.w3.org/Graphics/SVG/1.1/DTD/svg11.dtd">
<svg version="1.1" id="Capa_1" xmlns="http://www.w3.org/2000/svg" xmlns:xlink="http://www.w3.org/1999/xlink" x="0px" y="0px"
	 width="412.506px" height="412.505px" viewBox="0 0 412.506 412.505" style="enable-background:new 0 0 412.506 412.505;"
	 xml:space="preserve">
<g>
	<g>
		<path fill="#ffff" d="M336.547,206.252c0-73.087-59.249-132.335-132.336-132.335c-8.172,0-16.17,0.746-23.933,2.164
			c61.662,11.264,108.403,65.257,108.403,130.171c0,64.915-46.741,118.907-108.403,130.172c7.763,1.417,15.761,2.164,23.933,2.164
			C277.299,338.587,336.547,279.339,336.547,206.252z"/>
		<path fill="#ffff" d="M280.17,73.917c-8.172,0-16.17,0.746-23.934,2.164c61.663,11.264,108.403,65.257,108.403,130.171
			c0,64.915-46.74,118.907-108.403,130.172c7.764,1.417,15.762,2.164,23.934,2.164c73.088,0,132.336-59.249,132.336-132.335
			S353.258,73.917,280.17,73.917z"/>
		<path fill="#ffff" d="M256.236,206.252c0-70.758-57.361-128.119-128.121-128.119C57.359,78.133,0,135.494,0,206.252
			s57.359,128.119,128.116,128.119C198.875,334.372,256.236,277.011,256.236,206.252z M153.837,275.623
			c0,5.24-4.248,9.488-9.488,9.488h-17.478c-5.24,0-9.489-4.248-9.489-9.488V169.128l-10.816,5.84
			c-2.574,1.389-5.645,1.514-8.322,0.338c-2.678-1.175-4.664-3.52-5.383-6.355l-3.453-13.611c-1.072-4.229,0.875-8.642,4.72-10.699
			l30.127-16.125c1.376-0.738,2.915-1.123,4.477-1.123h15.618c5.24,0,9.488,4.248,9.488,9.488L153.837,275.623L153.837,275.623z"/>
	</g>
</g>
<g>
</g>
<g>
</g>
<g>
</g>
<g>
</g>
<g>
</g>
<g>
</g>
<g>
</g>
<g>
</g>
<g>
</g>
<g>
</g>
<g>
</g>
<g>
</g>
<g>
</g>
<g>
</g>
<g>
</g>
</svg>
